<svg width="50" height="50" viewBox="0 0 50 50" fill="none" xmlns="http://www.w3.org/2000/svg">
<path d="M25 3.125C12.9199 3.125 3.125 12.9199 3.125 25C3.125 37.0801 12.9199 46.875 25 46.875C37.0801 46.875 46.875 37.0801 46.875 25C46.875 12.9199 37.0801 3.125 25 3.125ZM25 43.1641C14.9707 43.1641 6.83594 35.0293 6.83594 25C6.83594 14.9707 14.9707 6.83594 25 6.83594C35.0293 6.83594 43.1641 14.9707 43.1641 25C43.1641 35.0293 35.0293 43.1641 25 43.1641ZM27.3291 23.8672L26.0889 23.5791V17.0215C27.9443 17.2754 29.0918 18.4375 29.2871 19.8633C29.3115 20.0586 29.4775 20.2002 29.6729 20.2002H31.8652C32.0947 20.2002 32.2754 20 32.2559 19.7705C31.958 16.7285 29.4531 14.7754 26.1084 14.4385V12.8418C26.1084 12.627 25.9326 12.4512 25.7178 12.4512H24.3457C24.1309 12.4512 23.9551 12.627 23.9551 12.8418V14.4531C20.498 14.79 17.793 16.6992 17.793 20.2637C17.793 23.5645 20.2246 25.1562 22.7783 25.7666L23.9844 26.0742V33.042C21.8262 32.7539 20.6152 31.6016 20.3662 30.0488C20.3369 29.8633 20.1709 29.7266 19.9805 29.7266H17.7246C17.4951 29.7266 17.3145 29.9219 17.334 30.1514C17.5537 32.8369 19.5898 35.3076 23.9355 35.625V37.1582C23.9355 37.373 24.1113 37.5488 24.3262 37.5488H25.7129C25.9277 37.5488 26.1035 37.373 26.1035 37.1533L26.0938 35.6055C29.917 35.2686 32.6514 33.2227 32.6514 29.5508C32.6465 26.1621 30.4932 24.6484 27.3291 23.8672ZM23.9795 23.0762C23.7061 22.998 23.4766 22.9248 23.2471 22.832C21.5967 22.2363 20.8301 21.2744 20.8301 20.0342C20.8301 18.2617 22.1729 17.251 23.9795 17.0215V23.0762ZM26.0889 33.0566V26.5283C26.2402 26.5723 26.377 26.6064 26.5186 26.6357C28.8281 27.3389 29.6045 28.3154 29.6045 29.8145C29.6045 31.7236 28.1689 32.8711 26.0889 33.0566Z" fill="white"/>
</svg>
