<svg width="42" height="40" viewBox="0 0 42 40" fill="none" xmlns="http://www.w3.org/2000/svg">
<path d="M22.5623 3.20835C24.6457 1.70835 27.0623 0.958354 29.7915 0.958354C31.2915 0.958354 32.9373 1.35419 34.729 2.18752C36.5207 3.00002 37.9373 3.95835 38.979 5.06252C41.1248 7.72919 42.0207 10.8334 41.7082 14.375C41.3748 17.9167 40.2082 20.6875 38.1873 22.6459L22.3748 38.4584C21.979 38.8542 21.479 39.0417 20.8957 39.0417C20.3123 39.0417 19.8332 38.8542 19.4373 38.4584C19.2449 38.2685 19.0938 38.041 18.9934 37.7901C18.893 37.5391 18.8456 37.2702 18.854 37C18.854 36.4167 19.0415 35.9167 19.4373 35.5209L28.9998 25.9584C29.5207 25.5 29.5207 25.0209 28.9998 24.5C28.479 23.9792 27.9998 23.9792 27.5415 24.5L17.979 34.0625C17.7862 34.2567 17.5552 34.4089 17.3006 34.5093C17.046 34.6097 16.7733 34.6562 16.4998 34.6459C15.9165 34.6459 15.4373 34.4584 15.0415 34.0625C14.8491 33.8727 14.698 33.6452 14.5976 33.3943C14.4972 33.1433 14.4497 32.8743 14.4582 32.6042C14.4582 32.0209 14.6457 31.5209 15.0415 31.125L24.604 21.5625C25.1665 21.0417 25.1665 20.5209 24.604 20C24.1248 19.4792 23.6665 19.4792 23.1457 20L13.5832 29.6667C13.3882 29.8579 13.1568 30.0081 12.9027 30.1083C12.6486 30.2085 12.377 30.2567 12.104 30.25C11.5207 30.25 11.0207 30.0625 10.5832 29.6667C10.1665 29.2709 9.95817 28.7917 9.95817 28.2084C9.95817 27.625 10.1873 27.1042 10.6457 26.6459L20.229 17.0625C20.7498 16.5417 20.7498 16.0625 20.229 15.6042C19.7082 15.1459 19.2082 15.1459 18.7498 15.6042L9.08317 25.2084C8.62484 25.625 8.14567 25.8542 7.62483 25.8542C7.0415 25.8542 6.5415 25.6459 6.1665 25.2084C5.77067 24.7917 5.56234 24.2917 5.56234 23.7084C5.56234 23.125 5.77067 22.6459 6.1665 22.25C12.5415 15.8334 16.479 11.9584 17.979 10.5209L25.3957 17.8542C26.2082 18.625 27.1457 19.0209 28.2915 19.0209C29.7498 19.0209 30.8957 18.4375 31.7498 17.2709C32.3332 16.4167 32.5415 15.4792 32.3748 14.4375C32.2082 13.3959 31.7707 12.5209 31.0623 11.7917L22.5623 3.20835ZM26.854 16.3959L17.979 7.50002L3.229 22.25C1.479 20.4792 0.479001 17.7709 0.249835 14.0834C0.0206682 10.4167 1.02067 7.22919 3.229 4.56252C5.70817 2.10419 8.6665 0.854187 12.104 0.854187C15.5623 0.854187 18.4998 2.10419 20.8957 4.56252L29.7915 13.4584C30.1873 13.8542 30.3748 14.3334 30.3748 14.9167C30.3748 15.5 30.1873 16 29.7915 16.3959C29.3957 16.7709 28.9165 16.9792 28.2915 16.9792C27.729 16.9792 27.2498 16.7709 26.854 16.3959Z" fill="white"/>
</svg>
